<svg id="Layer_1" data-name="Layer 1" xmlns="http://www.w3.org/2000/svg" viewBox="0 0 174.7 201.8"><defs><style>.cls-1{fill:#212121;}.cls-2{fill:#00BFA5}</style></defs><title>brackets</title><path class="cls-1" d="M151.8,48.3a167.18,167.18,0,0,1-1.6,21.1h22.9a159,159,0,0,0,1.6-21.9C174.7,14.2,160.5,0,136,0H38.7C14.2,0,0,14.2,0,47.5A159,159,0,0,0,1.6,69.4H24.5a167.18,167.18,0,0,1-1.6-21.1c0-17.5,6-23.1,20.3-23.1h88.4C145.8,25.3,151.8,30.9,151.8,48.3Z" transform="translate(0 0)"/><path class="cls-2" d="M149.8,129.4a183,183,0,0,1,2,24.1c0,17.5-6,23.1-20.3,23.1H43.1c-14.2,0-20.3-5.6-20.3-23.1a183,183,0,0,1,2-24.1H2.1A156.85,156.85,0,0,0,0,154.3c0,33.3,14.2,47.5,38.7,47.5h97.2c24.5,0,38.7-14.2,38.7-47.5a147.69,147.69,0,0,0-2.1-24.9Z" transform="translate(0 0)"/></svg>