<?xml version="1.0" encoding="utf-8"?>
<!-- Generator: Adobe Illustrator 18.0.0, SVG Export Plug-In . SVG Version: 6.00 Build 0)  -->
<!DOCTYPE svg PUBLIC "-//W3C//DTD SVG 1.1//EN" "http://www.w3.org/Graphics/SVG/1.1/DTD/svg11.dtd">
<svg version="1.1" id="Layer_1" xmlns="http://www.w3.org/2000/svg" xmlns:xlink="http://www.w3.org/1999/xlink" x="0px" y="0px"
	 viewBox="0 0 174.7 201.8" enable-background="new 0 0 174.7 201.8" xml:space="preserve">
<g>
	<path fill="#06393A" d="M110.9,163.4L90,121.9H67.4v41.5H43.6V37.8h51.5c29.2,0,40,11.9,40,33.9v16.4c0,15.1-5.7,25.7-18.9,30.4
		l23.2,44.9H110.9z M94.2,58.7H67.4v42.6h26.8c13,0,17.2-4.7,17.2-15.3V73.6C111.4,63.1,106.8,58.7,94.2,58.7z"/>
	<path fill="#367A85" d="M151.8,48.3c0,6.1-0.6,13.6-1.6,21.1h22.9c1-7.1,1.6-14.6,1.6-21.9c0-33.3-14.2-47.5-38.7-47.5H38.7
		C14.2,0,0,14.2,0,47.5c0,7.3,0.6,14.8,1.6,21.9h22.9c-1-7.5-1.6-15-1.6-21.1c0-17.5,6-23.1,20.3-23.1h88.4
		C145.8,25.3,151.8,30.9,151.8,48.3z"/>
	<path fill="#367A85" d="M149.8,129.4c1.2,8.5,2,17.2,2,24.1c0,17.5-6,23.1-20.3,23.1H43.1c-14.2,0-20.3-5.6-20.3-23.1
		c0-6.9,0.8-15.6,2-24.1H2.1c-1.3,8-2.1,16.5-2.1,24.9c0,33.3,14.2,47.5,38.7,47.5h97.2c24.5,0,38.7-14.2,38.7-47.5
		c0-8.3-0.7-16.8-2.1-24.9H149.8z"/>
</g>
</svg>
